<?xml version="1.0" encoding="UTF-8" standalone="no"?>
<!-- Created with Inkscape (http://www.inkscape.org/) -->

<svg
   width="169.99998mm"
   height="170.00003mm"
   viewBox="0 0 169.99999 170.00003"
   version="1.1"
   id="svg1"
   xml:space="preserve"
   xmlns="http://www.w3.org/2000/svg"
   xmlns:svg="http://www.w3.org/2000/svg"><defs
     id="defs1" /><g
     id="layer1"
     transform="translate(-20.581439,-52.843838)"><rect
       style="fill:#1f56df;stroke-width:0.265756"
       id="rect1"
       width="170"
       height="170"
       x="20.58144"
       y="52.843838"
       ry="30.29067" /><g
       id="g1"
       transform="matrix(0.11718842,0,0,0.11718842,45.580969,77.843367)"><path
         d="m 42.674,789.304 c -11.766,0 -21.344,-9.562 -21.344,-21.312 V 127.994 c 0,-11.766 9.578,-21.328 21.344,-21.328 h 938.634 c 11.782,0 21.376,9.562 21.376,21.328 v 639.998 c 0,11.75 -9.594,21.312 -21.376,21.312 z"
         fill="#5d9cec"
         p-id="8292"
         id="path1" /><path
         d="M 981.308,85.322 H 42.674 c -23.562,0 -42.67,19.11 -42.67,42.672 v 639.998 c 0,23.56 19.108,42.686 42.67,42.686 h 938.634 c 23.562,0 42.688,-19.124 42.688,-42.686 V 127.994 c 0,-23.562 -19.124,-42.672 -42.688,-42.672 z m 0,682.67 H 42.674 V 127.994 h 938.634 z"
         fill="#e6e9ed"
         p-id="8293"
         id="path2" /><path
         d="M 682.688,938.678 H 341.33 l 42.546,-170.498 256.186,-0.062 z"
         fill="#ccd1d9"
         p-id="8294"
         id="path3" /><path
         d="M 31.892,682.68 H 992.12 V 804.74 H 31.892 Z"
         fill="#e6e9ed"
         p-id="8295"
         id="path4" /><path
         d="m 533.328,746.68 c 0,11.75 -9.546,21.312 -21.328,21.312 -11.782,0 -21.328,-9.562 -21.328,-21.312 0,-11.812 9.546,-21.376 21.328,-21.376 11.782,0 21.328,9.564 21.328,21.376 z"
         fill="#434a54"
         p-id="8296"
         id="path5" /><path
         d="M 682.688,895.99 H 341.33 c -11.782,0 -21.328,9.562 -21.328,21.312 0,11.812 9.546,21.376 21.328,21.376 h 341.358 c 11.75,0 21.308,-9.562 21.308,-21.376 0,-11.75 -9.558,-21.312 -21.308,-21.312 z"
         fill="#e6e9ed"
         p-id="8297"
         id="path6" /><path
         d="M 634.688,682.68 H 512 L 640,127.994 h 122.684 z"
         fill="#ffffff"
         opacity="0.1"
         p-id="8298"
         id="path7" /></g></g></svg>
